<mxfile host="Electron" agent="Mozilla/5.0 (Macintosh; Intel Mac OS X 10_15_7) AppleWebKit/537.36 (KHTML, like Gecko) draw.io/27.0.9 Chrome/134.0.6998.205 Electron/35.4.0 Safari/537.36" version="27.0.9">
  <diagram name="routing" id="V1U5ahBtT8CTUrfcqf0h">
    <mxGraphModel dx="757" dy="1600" grid="1" gridSize="10" guides="1" tooltips="1" connect="1" arrows="1" fold="1" page="1" pageScale="1" pageWidth="850" pageHeight="1100" math="0" shadow="0">
      <root>
        <mxCell id="5h32e7U5oIckj3QQvWM9-0" />
        <mxCell id="5h32e7U5oIckj3QQvWM9-1" parent="5h32e7U5oIckj3QQvWM9-0" />
        <mxCell id="5h32e7U5oIckj3QQvWM9-4" value="mw-topo:Node" style="rounded=0;whiteSpace=wrap;html=1;snapToPoint=1;points=[[0.1,0],[0.2,0],[0.3,0],[0.4,0],[0.5,0],[0.6,0],[0.7,0],[0.8,0],[0.9,0],[0,0.1],[0,0.3],[0,0.5],[0,0.7],[0,0.9],[0.1,1],[0.2,1],[0.3,1],[0.4,1],[0.5,1],[0.6,1],[0.7,1],[0.8,1],[0.9,1],[1,0.1],[1,0.3],[1,0.5],[1,0.7],[1,0.9]];fillColor=#d5e8d4;strokeColor=#000000;fontSize=14;align=center;verticalAlign=middle;fontFamily=Helvetica;" parent="5h32e7U5oIckj3QQvWM9-1" vertex="1">
          <mxGeometry x="360" y="415" width="130" height="30" as="geometry" />
        </mxCell>
        <mxCell id="5h32e7U5oIckj3QQvWM9-16" value="mw-topo:Interface" style="rounded=0;whiteSpace=wrap;html=1;snapToPoint=1;points=[[0.1,0],[0.2,0],[0.3,0],[0.4,0],[0.5,0],[0.6,0],[0.7,0],[0.8,0],[0.9,0],[0,0.1],[0,0.3],[0,0.5],[0,0.7],[0,0.9],[0.1,1],[0.2,1],[0.3,1],[0.4,1],[0.5,1],[0.6,1],[0.7,1],[0.8,1],[0.9,1],[1,0.1],[1,0.3],[1,0.5],[1,0.7],[1,0.9]];fillColor=#d5e8d4;strokeColor=#000000;fontSize=14;align=center;verticalAlign=middle;fontFamily=Helvetica;" parent="5h32e7U5oIckj3QQvWM9-1" vertex="1">
          <mxGeometry x="360" y="270" width="130" height="30" as="geometry" />
        </mxCell>
        <mxCell id="5h32e7U5oIckj3QQvWM9-19" value="mw-rt:ipAddress" style="edgeStyle=orthogonalEdgeStyle;rounded=0;orthogonalLoop=1;jettySize=auto;html=1;exitX=1;exitY=0.5;exitDx=0;exitDy=0;entryX=0;entryY=0.5;entryDx=0;entryDy=0;fontSize=14;" parent="5h32e7U5oIckj3QQvWM9-1" source="5h32e7U5oIckj3QQvWM9-20" target="5h32e7U5oIckj3QQvWM9-22" edge="1">
          <mxGeometry x="-0.0036" relative="1" as="geometry">
            <mxPoint as="offset" />
          </mxGeometry>
        </mxCell>
        <mxCell id="5h32e7U5oIckj3QQvWM9-20" value="mw-rt:IpInterface" style="rounded=0;whiteSpace=wrap;html=1;snapToPoint=1;points=[[0.1,0],[0.2,0],[0.3,0],[0.4,0],[0.5,0],[0.6,0],[0.7,0],[0.8,0],[0.9,0],[0,0.1],[0,0.3],[0,0.5],[0,0.7],[0,0.9],[0.1,1],[0.2,1],[0.3,1],[0.4,1],[0.5,1],[0.6,1],[0.7,1],[0.8,1],[0.9,1],[1,0.1],[1,0.3],[1,0.5],[1,0.7],[1,0.9]];fillColor=#ffe6cc;strokeColor=#000000;fontSize=14;align=center;verticalAlign=middle;fontFamily=Helvetica;" parent="5h32e7U5oIckj3QQvWM9-1" vertex="1">
          <mxGeometry x="550" y="270" width="130" height="30" as="geometry" />
        </mxCell>
        <mxCell id="5h32e7U5oIckj3QQvWM9-21" value="" style="endArrow=block;html=1;fontColor=#000000;endFill=0;endSize=8;arcSize=0;rounded=0;fontFamily=Helvetica;entryX=1;entryY=0.5;entryDx=0;entryDy=0;exitX=0;exitY=0.5;exitDx=0;exitDy=0;fontSize=13;edgeStyle=orthogonalEdgeStyle;" parent="5h32e7U5oIckj3QQvWM9-1" source="5h32e7U5oIckj3QQvWM9-20" target="5h32e7U5oIckj3QQvWM9-16" edge="1">
          <mxGeometry width="50" height="50" relative="1" as="geometry">
            <mxPoint x="260" y="510" as="sourcePoint" />
            <mxPoint x="186" y="460" as="targetPoint" />
          </mxGeometry>
        </mxCell>
        <mxCell id="5h32e7U5oIckj3QQvWM9-22" value="mw-rt:addressValue: xsd:string" style="rounded=0;whiteSpace=wrap;html=1;snapToPoint=1;points=[[0.1,0],[0.2,0],[0.3,0],[0.4,0],[0.5,0],[0.6,0],[0.7,0],[0.8,0],[0.9,0],[0,0.1],[0,0.3],[0,0.5],[0,0.7],[0,0.9],[0.1,1],[0.2,1],[0.3,1],[0.4,1],[0.5,1],[0.6,1],[0.7,1],[0.8,1],[0.9,1],[1,0.1],[1,0.3],[1,0.5],[1,0.7],[1,0.9]];align=left;spacingLeft=10;fontSize=14;" parent="5h32e7U5oIckj3QQvWM9-1" vertex="1">
          <mxGeometry x="810" y="270" width="210" height="30" as="geometry" />
        </mxCell>
        <mxCell id="5h32e7U5oIckj3QQvWM9-23" value="mw-rt:IpAddress" style="rounded=0;whiteSpace=wrap;html=1;snapToPoint=1;points=[[0.1,0],[0.2,0],[0.3,0],[0.4,0],[0.5,0],[0.6,0],[0.7,0],[0.8,0],[0.9,0],[0,0.1],[0,0.3],[0,0.5],[0,0.7],[0,0.9],[0.1,1],[0.2,1],[0.3,1],[0.4,1],[0.5,1],[0.6,1],[0.7,1],[0.8,1],[0.9,1],[1,0.1],[1,0.3],[1,0.5],[1,0.7],[1,0.9]];fillColor=#ffe6cc;strokeColor=#000000;fontSize=14;align=center;verticalAlign=middle;fontFamily=Helvetica;" parent="5h32e7U5oIckj3QQvWM9-1" vertex="1">
          <mxGeometry x="810" y="240" width="210" height="30" as="geometry" />
        </mxCell>
        <mxCell id="5h32e7U5oIckj3QQvWM9-31" value="mw-rt:staticRoute" style="edgeStyle=orthogonalEdgeStyle;rounded=0;orthogonalLoop=1;jettySize=auto;html=1;exitX=0.5;exitY=0;exitDx=0;exitDy=0;entryX=0;entryY=0.5;entryDx=0;entryDy=0;strokeColor=default;align=center;verticalAlign=middle;fontFamily=Helvetica;fontSize=14;fontColor=default;labelBackgroundColor=default;endArrow=classic;" parent="5h32e7U5oIckj3QQvWM9-1" source="5h32e7U5oIckj3QQvWM9-4" target="5h32e7U5oIckj3QQvWM9-51" edge="1">
          <mxGeometry relative="1" as="geometry">
            <mxPoint x="280.4300000000003" y="460.0000000000002" as="sourcePoint" />
          </mxGeometry>
        </mxCell>
        <mxCell id="5h32e7U5oIckj3QQvWM9-41" value="mw-rt:ospfRouter" style="edgeStyle=orthogonalEdgeStyle;rounded=0;orthogonalLoop=1;jettySize=auto;html=1;exitX=0.5;exitY=0;exitDx=0;exitDy=0;entryX=0;entryY=0.5;entryDx=0;entryDy=0;strokeColor=default;align=center;verticalAlign=middle;fontFamily=Helvetica;fontSize=14;fontColor=default;labelBackgroundColor=default;endArrow=classic;" parent="5h32e7U5oIckj3QQvWM9-1" source="5h32e7U5oIckj3QQvWM9-42" target="5h32e7U5oIckj3QQvWM9-57" edge="1">
          <mxGeometry relative="1" as="geometry" />
        </mxCell>
        <mxCell id="5h32e7U5oIckj3QQvWM9-42" value="mw-pm:Router" style="rounded=0;whiteSpace=wrap;html=1;snapToPoint=1;points=[[0.1,0],[0.2,0],[0.3,0],[0.4,0],[0.5,0],[0.6,0],[0.7,0],[0.8,0],[0.9,0],[0,0.1],[0,0.3],[0,0.5],[0,0.7],[0,0.9],[0.1,1],[0.2,1],[0.3,1],[0.4,1],[0.5,1],[0.6,1],[0.7,1],[0.8,1],[0.9,1],[1,0.1],[1,0.3],[1,0.5],[1,0.7],[1,0.9]];fillColor=#e1d5e7;strokeColor=#000000;fontSize=14;align=center;verticalAlign=middle;fontFamily=Helvetica;" parent="5h32e7U5oIckj3QQvWM9-1" vertex="1">
          <mxGeometry x="354.13" y="570" width="135.87" height="30" as="geometry" />
        </mxCell>
        <mxCell id="5h32e7U5oIckj3QQvWM9-49" value="mw-rt:nextHop" style="edgeStyle=orthogonalEdgeStyle;rounded=0;orthogonalLoop=1;jettySize=auto;html=1;exitX=1;exitY=0.5;exitDx=0;exitDy=0;entryX=0.2;entryY=1;entryDx=0;entryDy=0;strokeColor=default;align=center;verticalAlign=middle;fontFamily=Helvetica;fontSize=14;fontColor=default;labelBackgroundColor=default;endArrow=classic;" parent="5h32e7U5oIckj3QQvWM9-1" source="5h32e7U5oIckj3QQvWM9-51" target="5h32e7U5oIckj3QQvWM9-22" edge="1">
          <mxGeometry relative="1" as="geometry" />
        </mxCell>
        <mxCell id="5h32e7U5oIckj3QQvWM9-50" value="mw-rt:destinationNetwork" style="rounded=0;orthogonalLoop=1;jettySize=auto;html=1;exitX=0.8;exitY=1;exitDx=0;exitDy=0;entryX=0.5;entryY=1;entryDx=0;entryDy=0;strokeColor=default;align=center;verticalAlign=middle;fontFamily=Helvetica;fontSize=14;fontColor=default;labelBackgroundColor=default;endArrow=classic;edgeStyle=orthogonalEdgeStyle;" parent="5h32e7U5oIckj3QQvWM9-1" source="5h32e7U5oIckj3QQvWM9-51" target="5h32e7U5oIckj3QQvWM9-76" edge="1">
          <mxGeometry x="-0.0007" relative="1" as="geometry">
            <mxPoint as="offset" />
            <mxPoint x="880.3800000000001" y="405" as="targetPoint" />
          </mxGeometry>
        </mxCell>
        <mxCell id="5h32e7U5oIckj3QQvWM9-51" value="mw-rt:StaticRoute" style="rounded=0;whiteSpace=wrap;html=1;snapToPoint=1;points=[[0.1,0],[0.2,0],[0.3,0],[0.4,0],[0.5,0],[0.6,0],[0.7,0],[0.8,0],[0.9,0],[0,0.1],[0,0.3],[0,0.5],[0,0.7],[0,0.9],[0.1,1],[0.2,1],[0.3,1],[0.4,1],[0.5,1],[0.6,1],[0.7,1],[0.8,1],[0.9,1],[1,0.1],[1,0.3],[1,0.5],[1,0.7],[1,0.9]];fillColor=#ffe6cc;strokeColor=#000000;fontSize=14;align=center;verticalAlign=middle;fontFamily=Helvetica;" parent="5h32e7U5oIckj3QQvWM9-1" vertex="1">
          <mxGeometry x="551.6899999999999" y="350" width="128.31" height="30" as="geometry" />
        </mxCell>
        <mxCell id="v7FNLTTqbQUn4HPbbWwz-0" value="&lt;span style=&quot;font-size: 14px;&quot;&gt;(value) mw-rt:destinationNetwork&lt;/span&gt;" style="edgeStyle=orthogonalEdgeStyle;rounded=0;orthogonalLoop=1;jettySize=auto;html=1;exitX=1;exitY=0.5;exitDx=0;exitDy=0;entryX=0.1;entryY=1;entryDx=0;entryDy=0;" parent="5h32e7U5oIckj3QQvWM9-1" source="5h32e7U5oIckj3QQvWM9-52" target="5h32e7U5oIckj3QQvWM9-78" edge="1">
          <mxGeometry relative="1" as="geometry" />
        </mxCell>
        <mxCell id="5h32e7U5oIckj3QQvWM9-52" value="mw-rt:DefaultStaticRoute" style="rounded=0;whiteSpace=wrap;html=1;snapToPoint=1;points=[[0.1,0],[0.2,0],[0.3,0],[0.4,0],[0.5,0],[0.6,0],[0.7,0],[0.8,0],[0.9,0],[0,0.1],[0,0.3],[0,0.5],[0,0.7],[0,0.9],[0.1,1],[0.2,1],[0.3,1],[0.4,1],[0.5,1],[0.6,1],[0.7,1],[0.8,1],[0.9,1],[1,0.1],[1,0.3],[1,0.5],[1,0.7],[1,0.9]];fillColor=#ffe6cc;strokeColor=#000000;fontSize=14;align=center;verticalAlign=middle;fontFamily=Helvetica;" parent="5h32e7U5oIckj3QQvWM9-1" vertex="1">
          <mxGeometry x="680.0000000000001" y="425" width="168.31" height="30" as="geometry" />
        </mxCell>
        <mxCell id="5h32e7U5oIckj3QQvWM9-53" value="" style="endArrow=block;html=1;fontColor=#000000;endFill=0;endSize=8;arcSize=0;rounded=0;fontFamily=Helvetica;entryX=0.5;entryY=1;entryDx=0;entryDy=0;exitX=0;exitY=0.5;exitDx=0;exitDy=0;fontSize=13;edgeStyle=orthogonalEdgeStyle;" parent="5h32e7U5oIckj3QQvWM9-1" source="5h32e7U5oIckj3QQvWM9-52" target="5h32e7U5oIckj3QQvWM9-51" edge="1">
          <mxGeometry width="50" height="50" relative="1" as="geometry">
            <mxPoint x="575.51" y="295" as="sourcePoint" />
            <mxPoint x="518.51" y="295" as="targetPoint" />
          </mxGeometry>
        </mxCell>
        <mxCell id="5h32e7U5oIckj3QQvWM9-54" value="mw-rt:OspfRouter" style="rounded=0;whiteSpace=wrap;html=1;snapToPoint=1;points=[[0.1,0],[0.2,0],[0.3,0],[0.4,0],[0.5,0],[0.6,0],[0.7,0],[0.8,0],[0.9,0],[0,0.1],[0,0.3],[0,0.5],[0,0.7],[0,0.9],[0.1,1],[0.2,1],[0.3,1],[0.4,1],[0.5,1],[0.6,1],[0.7,1],[0.8,1],[0.9,1],[1,0.1],[1,0.3],[1,0.5],[1,0.7],[1,0.9]];fillColor=#ffe6cc;strokeColor=#000000;fontSize=14;align=center;verticalAlign=middle;fontFamily=Helvetica;" parent="5h32e7U5oIckj3QQvWM9-1" vertex="1">
          <mxGeometry x="585.51" y="485" width="184.49" height="30" as="geometry" />
        </mxCell>
        <mxCell id="5h32e7U5oIckj3QQvWM9-55" value="mw-rt:ospfArea" style="edgeStyle=orthogonalEdgeStyle;rounded=0;orthogonalLoop=1;jettySize=auto;html=1;strokeColor=default;align=center;verticalAlign=middle;fontFamily=Helvetica;fontSize=14;fontColor=default;labelBackgroundColor=default;endArrow=classic;exitX=0.5;exitY=0;exitDx=0;exitDy=0;" parent="5h32e7U5oIckj3QQvWM9-1" source="5h32e7U5oIckj3QQvWM9-84" target="5h32e7U5oIckj3QQvWM9-60" edge="1">
          <mxGeometry x="-0.0588" relative="1" as="geometry">
            <mxPoint as="offset" />
          </mxGeometry>
        </mxCell>
        <mxCell id="5h32e7U5oIckj3QQvWM9-56" value="mw-rt:ospfConfiguration" style="edgeStyle=orthogonalEdgeStyle;rounded=0;orthogonalLoop=1;jettySize=auto;html=1;exitX=1;exitY=0.5;exitDx=0;exitDy=0;entryX=0;entryY=0.5;entryDx=0;entryDy=0;strokeColor=default;align=center;verticalAlign=middle;fontFamily=Helvetica;fontSize=14;fontColor=default;labelBackgroundColor=default;endArrow=classic;" parent="5h32e7U5oIckj3QQvWM9-1" source="5h32e7U5oIckj3QQvWM9-57" target="5h32e7U5oIckj3QQvWM9-84" edge="1">
          <mxGeometry x="-0.2983" relative="1" as="geometry">
            <mxPoint as="offset" />
            <Array as="points">
              <mxPoint x="900" y="530" />
              <mxPoint x="900" y="615" />
            </Array>
          </mxGeometry>
        </mxCell>
        <mxCell id="5h32e7U5oIckj3QQvWM9-57" value="mw-rt:routerId: rdfs:Literal" style="rounded=0;whiteSpace=wrap;html=1;snapToPoint=1;points=[[0.1,0],[0.2,0],[0.3,0],[0.4,0],[0.5,0],[0.6,0],[0.7,0],[0.8,0],[0.9,0],[0,0.1],[0,0.3],[0,0.5],[0,0.7],[0,0.9],[0.1,1],[0.2,1],[0.3,1],[0.4,1],[0.5,1],[0.6,1],[0.7,1],[0.8,1],[0.9,1],[1,0.1],[1,0.3],[1,0.5],[1,0.7],[1,0.9]];align=left;spacingLeft=10;fontSize=14;" parent="5h32e7U5oIckj3QQvWM9-1" vertex="1">
          <mxGeometry x="585.51" y="515" width="184.49" height="30" as="geometry" />
        </mxCell>
        <mxCell id="5h32e7U5oIckj3QQvWM9-58" value="mw-rt:OspfArea" style="rounded=0;whiteSpace=wrap;html=1;snapToPoint=1;points=[[0.1,0],[0.2,0],[0.3,0],[0.4,0],[0.5,0],[0.6,0],[0.7,0],[0.8,0],[0.9,0],[0,0.1],[0,0.3],[0,0.5],[0,0.7],[0,0.9],[0.1,1],[0.2,1],[0.3,1],[0.4,1],[0.5,1],[0.6,1],[0.7,1],[0.8,1],[0.9,1],[1,0.1],[1,0.3],[1,0.5],[1,0.7],[1,0.9]];fillColor=#ffe6cc;strokeColor=#000000;fontSize=14;align=center;verticalAlign=middle;fontFamily=Helvetica;" parent="5h32e7U5oIckj3QQvWM9-1" vertex="1">
          <mxGeometry x="976.73" y="485" width="173.27" height="30" as="geometry" />
        </mxCell>
        <mxCell id="5h32e7U5oIckj3QQvWM9-59" value="mw-rt:assignedNetwork" style="rounded=0;orthogonalLoop=1;jettySize=auto;html=1;exitX=1;exitY=0.5;exitDx=0;exitDy=0;entryX=0.8;entryY=1;entryDx=0;entryDy=0;strokeColor=default;align=center;verticalAlign=middle;fontFamily=Helvetica;fontSize=14;fontColor=default;labelBackgroundColor=default;endArrow=classic;edgeStyle=orthogonalEdgeStyle;jumpStyle=arc;jumpSize=20;" parent="5h32e7U5oIckj3QQvWM9-1" source="5h32e7U5oIckj3QQvWM9-84" target="5h32e7U5oIckj3QQvWM9-76" edge="1">
          <mxGeometry relative="1" as="geometry">
            <mxPoint x="955.46" y="420" as="targetPoint" />
          </mxGeometry>
        </mxCell>
        <mxCell id="5h32e7U5oIckj3QQvWM9-60" value="mw-rt:areaId: xsd:string" style="rounded=0;whiteSpace=wrap;html=1;snapToPoint=1;points=[[0.1,0],[0.2,0],[0.3,0],[0.4,0],[0.5,0],[0.6,0],[0.7,0],[0.8,0],[0.9,0],[0,0.1],[0,0.3],[0,0.5],[0,0.7],[0,0.9],[0.1,1],[0.2,1],[0.3,1],[0.4,1],[0.5,1],[0.6,1],[0.7,1],[0.8,1],[0.9,1],[1,0.1],[1,0.3],[1,0.5],[1,0.7],[1,0.9]];align=left;spacingLeft=10;fontSize=14;" parent="5h32e7U5oIckj3QQvWM9-1" vertex="1">
          <mxGeometry x="976.7" y="515" width="173.3" height="30" as="geometry" />
        </mxCell>
        <mxCell id="5h32e7U5oIckj3QQvWM9-63" value="mw-rt:belongsToNetwork" style="edgeStyle=orthogonalEdgeStyle;rounded=0;orthogonalLoop=1;jettySize=auto;html=1;exitX=0.8;exitY=1;exitDx=0;exitDy=0;entryX=0.2;entryY=1;entryDx=0;entryDy=0;strokeColor=default;align=center;verticalAlign=middle;fontFamily=Helvetica;fontSize=14;fontColor=default;labelBackgroundColor=default;endArrow=classic;" parent="5h32e7U5oIckj3QQvWM9-1" source="5h32e7U5oIckj3QQvWM9-22" target="5h32e7U5oIckj3QQvWM9-76" edge="1">
          <mxGeometry x="-0.4763" relative="1" as="geometry">
            <mxPoint x="985.4920000000002" y="390" as="targetPoint" />
            <Array as="points">
              <mxPoint x="978" y="340" />
              <mxPoint x="1112" y="340" />
            </Array>
            <mxPoint as="offset" />
          </mxGeometry>
        </mxCell>
        <mxCell id="5h32e7U5oIckj3QQvWM9-76" value="&lt;div&gt;mw-rt:addressValue: xsd:string&lt;/div&gt;&lt;div&gt;mw-rt:networkMask: xsd:string&lt;/div&gt;&lt;div&gt;mw-rt:networkPrefix: xsd:integer&lt;/div&gt;" style="rounded=0;whiteSpace=wrap;html=1;snapToPoint=1;points=[[0.1,0],[0.2,0],[0.3,0],[0.4,0],[0.5,0],[0.6,0],[0.7,0],[0.8,0],[0.9,0],[0,0.1],[0,0.3],[0,0.5],[0,0.7],[0,0.9],[0.1,1],[0.2,1],[0.3,1],[0.4,1],[0.5,1],[0.6,1],[0.7,1],[0.8,1],[0.9,1],[1,0.1],[1,0.3],[1,0.5],[1,0.7],[1,0.9]];align=left;spacingLeft=10;fontSize=14;" parent="5h32e7U5oIckj3QQvWM9-1" vertex="1">
          <mxGeometry x="1070" y="230" width="220" height="70" as="geometry" />
        </mxCell>
        <mxCell id="5h32e7U5oIckj3QQvWM9-77" value="mw-rt:IpNetwork" style="rounded=0;whiteSpace=wrap;html=1;snapToPoint=1;points=[[0.1,0],[0.2,0],[0.3,0],[0.4,0],[0.5,0],[0.6,0],[0.7,0],[0.8,0],[0.9,0],[0,0.1],[0,0.3],[0,0.5],[0,0.7],[0,0.9],[0.1,1],[0.2,1],[0.3,1],[0.4,1],[0.5,1],[0.6,1],[0.7,1],[0.8,1],[0.9,1],[1,0.1],[1,0.3],[1,0.5],[1,0.7],[1,0.9]];fillColor=#ffe6cc;strokeColor=#000000;fontSize=14;align=center;verticalAlign=middle;fontFamily=Helvetica;" parent="5h32e7U5oIckj3QQvWM9-1" vertex="1">
          <mxGeometry x="1070" y="200" width="220" height="30" as="geometry" />
        </mxCell>
        <mxCell id="gItZIs77afhqnqTafyYg-1" value="mw-rt:networkPrefix" style="edgeStyle=orthogonalEdgeStyle;rounded=0;orthogonalLoop=1;jettySize=auto;html=1;exitX=0.8;exitY=1;exitDx=0;exitDy=0;entryX=0.5;entryY=0;entryDx=0;entryDy=0;strokeColor=default;align=center;verticalAlign=middle;fontFamily=Helvetica;fontSize=14;fontColor=default;labelBackgroundColor=default;endArrow=classic;" parent="5h32e7U5oIckj3QQvWM9-1" source="5h32e7U5oIckj3QQvWM9-78" target="gItZIs77afhqnqTafyYg-0" edge="1">
          <mxGeometry x="0.3305" y="2" relative="1" as="geometry">
            <mxPoint as="offset" />
          </mxGeometry>
        </mxCell>
        <mxCell id="5h32e7U5oIckj3QQvWM9-78" value="mw-rt:DefaultIpNetwork" style="rounded=0;whiteSpace=wrap;html=1;snapToPoint=1;points=[[0.1,0],[0.2,0],[0.3,0],[0.4,0],[0.5,0],[0.6,0],[0.7,0],[0.8,0],[0.9,0],[0,0.1],[0,0.3],[0,0.5],[0,0.7],[0,0.9],[0.1,1],[0.2,1],[0.3,1],[0.4,1],[0.5,1],[0.6,1],[0.7,1],[0.8,1],[0.9,1],[1,0.1],[1,0.3],[1,0.5],[1,0.7],[1,0.9]];fillColor=#ffe6cc;strokeColor=#000000;fontSize=14;align=center;verticalAlign=middle;fontFamily=Helvetica;fontStyle=4" parent="5h32e7U5oIckj3QQvWM9-1" vertex="1">
          <mxGeometry x="1270" y="320" width="210" height="30" as="geometry" />
        </mxCell>
        <mxCell id="5h32e7U5oIckj3QQvWM9-79" value="" style="endArrow=open;html=1;rounded=0;labelPosition=right;verticalLabelPosition=bottom;align=center;verticalAlign=middle;fontFamily=Helvetica;dashed=1;strokeColor=default;fontSize=8;fontColor=#000099;labelBackgroundColor=default;endFill=0;endSize=8;exitX=0.3;exitY=0;exitDx=0;exitDy=0;entryX=1;entryY=0.5;entryDx=0;entryDy=0;edgeStyle=orthogonalEdgeStyle;" parent="5h32e7U5oIckj3QQvWM9-1" source="5h32e7U5oIckj3QQvWM9-78" target="5h32e7U5oIckj3QQvWM9-77" edge="1">
          <mxGeometry width="50" height="50" relative="1" as="geometry">
            <mxPoint x="1135" y="415" as="sourcePoint" />
            <mxPoint x="1030" y="415" as="targetPoint" />
            <mxPoint as="offset" />
          </mxGeometry>
        </mxCell>
        <mxCell id="5h32e7U5oIckj3QQvWM9-80" value="&quot;255.255.255.0&quot;" style="rounded=0;whiteSpace=wrap;html=1;snapToPoint=1;fontSize=14;" parent="5h32e7U5oIckj3QQvWM9-1" vertex="1">
          <mxGeometry x="1357" y="220" width="120" height="30" as="geometry" />
        </mxCell>
        <mxCell id="5h32e7U5oIckj3QQvWM9-81" value="mw-rt:networkMask" style="edgeStyle=orthogonalEdgeStyle;rounded=0;orthogonalLoop=1;jettySize=auto;html=1;exitX=0.7;exitY=0;exitDx=0;exitDy=0;fontSize=14;strokeColor=default;align=center;verticalAlign=middle;fontFamily=Helvetica;fontColor=default;labelBackgroundColor=default;endArrow=classic;" parent="5h32e7U5oIckj3QQvWM9-1" source="5h32e7U5oIckj3QQvWM9-78" target="5h32e7U5oIckj3QQvWM9-80" edge="1">
          <mxGeometry relative="1" as="geometry">
            <mxPoint x="1220" y="479" as="sourcePoint" />
          </mxGeometry>
        </mxCell>
        <mxCell id="5h32e7U5oIckj3QQvWM9-82" value="&quot;0.0.0.0&quot;" style="rounded=0;whiteSpace=wrap;html=1;snapToPoint=1;fontSize=14;" parent="5h32e7U5oIckj3QQvWM9-1" vertex="1">
          <mxGeometry x="1320" y="415" width="70" height="30" as="geometry" />
        </mxCell>
        <mxCell id="5h32e7U5oIckj3QQvWM9-83" value="mw-rt:addressValue" style="edgeStyle=orthogonalEdgeStyle;rounded=0;orthogonalLoop=1;jettySize=auto;html=1;exitX=0.5;exitY=1;exitDx=0;exitDy=0;fontSize=14;strokeColor=default;align=center;verticalAlign=middle;fontFamily=Helvetica;fontColor=default;labelBackgroundColor=default;endArrow=classic;entryX=0.5;entryY=0;entryDx=0;entryDy=0;" parent="5h32e7U5oIckj3QQvWM9-1" source="5h32e7U5oIckj3QQvWM9-78" target="5h32e7U5oIckj3QQvWM9-82" edge="1">
          <mxGeometry x="0.0085" relative="1" as="geometry">
            <mxPoint x="1448" y="330" as="sourcePoint" />
            <mxPoint x="1450" y="210" as="targetPoint" />
            <mxPoint as="offset" />
          </mxGeometry>
        </mxCell>
        <mxCell id="5h32e7U5oIckj3QQvWM9-84" value="mw-rt:OspfConfiguration" style="rounded=0;whiteSpace=wrap;html=1;snapToPoint=1;points=[[0.1,0],[0.2,0],[0.3,0],[0.4,0],[0.5,0],[0.6,0],[0.7,0],[0.8,0],[0.9,0],[0,0.1],[0,0.3],[0,0.5],[0,0.7],[0,0.9],[0.1,1],[0.2,1],[0.3,1],[0.4,1],[0.5,1],[0.6,1],[0.7,1],[0.8,1],[0.9,1],[1,0.1],[1,0.3],[1,0.5],[1,0.7],[1,0.9]];fillColor=#ffe6cc;strokeColor=#000000;fontSize=14;align=center;verticalAlign=middle;fontFamily=Helvetica;" parent="5h32e7U5oIckj3QQvWM9-1" vertex="1">
          <mxGeometry x="980.93" y="600" width="164.84" height="30" as="geometry" />
        </mxCell>
        <mxCell id="gItZIs77afhqnqTafyYg-0" value="&quot;0&quot;^^&lt;span style=&quot;text-align: left;&quot;&gt;xsd:integer&lt;/span&gt;" style="rounded=0;whiteSpace=wrap;html=1;snapToPoint=1;fontSize=14;" parent="5h32e7U5oIckj3QQvWM9-1" vertex="1">
          <mxGeometry x="1470" y="415" width="120" height="30" as="geometry" />
        </mxCell>
        <mxCell id="qPcVPQ20BTHQ4WQNNw3L-0" value="&lt;div style=&quot;border-color: var(--border-color);&quot;&gt;&lt;div style=&quot;border-color: var(--border-color);&quot;&gt;&lt;b&gt;mw-pm&lt;/b&gt;:&amp;nbsp;&lt;span style=&quot;white-space: pre;&quot;&gt;https://w3id.org/mouseworld/platform#&lt;/span&gt;&lt;/div&gt;&lt;div style=&quot;border-color: var(--border-color);&quot;&gt;&lt;/div&gt;&lt;/div&gt;&lt;div style=&quot;border-color: var(--border-color);&quot;&gt;&lt;b style=&quot;border-color: var(--border-color);&quot;&gt;&lt;/b&gt;&lt;b&gt;mw-rt&lt;/b&gt;:&amp;nbsp;&lt;span style=&quot;white-space: pre;&quot;&gt;&lt;font style=&quot;&quot;&gt;https://w3id.org/mouseworld/routing#&lt;/font&gt;&lt;/span&gt;&lt;/div&gt;&lt;div style=&quot;border-color: var(--border-color);&quot;&gt;&lt;div style=&quot;border-color: var(--border-color);&quot;&gt;&lt;b&gt;mw-topo&lt;/b&gt;:&amp;nbsp;&lt;span style=&quot;white-space: pre;&quot;&gt;https://w3id.org/mouseworld/topology#&lt;/span&gt;&lt;/div&gt;&lt;/div&gt;&lt;div style=&quot;border-color: var(--border-color);&quot;&gt;&lt;span style=&quot;background-color: initial; color: light-dark(rgb(0, 0, 0), rgb(255, 255, 255)); white-space: pre;&quot;&gt;&lt;b&gt;schema: &lt;/b&gt;&lt;/span&gt;&lt;span style=&quot;background-color: transparent; color: light-dark(rgb(0, 0, 0), rgb(255, 255, 255)); white-space: pre;&quot;&gt;http://schema.org/&lt;/span&gt;&lt;/div&gt;&lt;b style=&quot;border-color: var(--border-color);&quot;&gt;&lt;div style=&quot;&quot;&gt;&lt;/div&gt;&lt;/b&gt;" style="shape=note;whiteSpace=wrap;html=1;backgroundOutline=1;darkOpacity=0.05;size=13;align=left;spacingLeft=10;fontFamily=Helvetica;" vertex="1" parent="5h32e7U5oIckj3QQvWM9-1">
          <mxGeometry x="819.21" y="-200" width="620.79" height="69.45" as="geometry" />
        </mxCell>
        <mxCell id="qPcVPQ20BTHQ4WQNNw3L-1" value="&lt;div&gt;&lt;b&gt;dcterms:title&lt;/b&gt;: &lt;span style=&quot;background-color: light-dark(rgb(255, 255, 255), rgb(18, 18, 18)); color: light-dark(rgb(0, 0, 0), rgb(237, 237, 237));&quot;&gt;&quot;The Mouseworld Ontology – Routing&lt;/span&gt;&lt;span style=&quot;background-color: light-dark(rgb(255, 255, 255), rgb(18, 18, 18)); color: light-dark(rgb(0, 0, 0), rgb(237, 237, 237));&quot;&gt;&quot;&lt;/span&gt;&lt;/div&gt;&lt;div&gt;&lt;b&gt;dcterms:created&lt;/b&gt;: &quot;2025-02-19&quot;^^xsd:date&lt;/div&gt;&lt;div&gt;&lt;b style=&quot;background-color: light-dark(rgb(255, 255, 255), rgb(18, 18, 18)); color: light-dark(rgb(0, 0, 0), rgb(237, 237, 237));&quot;&gt;dcterms:creator:&lt;/b&gt;&lt;span style=&quot;background-color: light-dark(rgb(255, 255, 255), rgb(18, 18, 18)); color: light-dark(rgb(0, 0, 0), rgb(237, 237, 237));&quot;&gt;&amp;nbsp;&quot;Ignacio Dominguez Martinez-Casanueva&quot;&lt;/span&gt;&lt;/div&gt;&lt;div&gt;&lt;div&gt;&lt;b&gt;dcterms:contributor: &quot;&lt;/b&gt;Lucia Cabanillas Rodriguez&quot;&lt;/div&gt;&lt;div&gt;&lt;b&gt;dcterms:contributor: &quot;&lt;/b&gt;Yenny Moreno Meneses&quot;&lt;/div&gt;&lt;div&gt;&lt;b&gt;dcterms:contributor: &quot;&lt;/b&gt;Javier Nuñez Fuente&quot;&lt;/div&gt;&lt;/div&gt;&lt;div&gt;&lt;b style=&quot;background-color: light-dark(rgb(255, 255, 255), rgb(18, 18, 18)); color: light-dark(rgb(0, 0, 0), rgb(237, 237, 237));&quot;&gt;dcterms:description:&amp;nbsp;&lt;/b&gt;&lt;span style=&quot;background-color: light-dark(rgb(255, 255, 255), rgb(18, 18, 18)); color: light-dark(rgb(0, 0, 0), rgb(237, 237, 237));&quot;&gt;&quot;MW Ontology module that represents network routing details of the digital twin.&quot;&lt;/span&gt;&lt;/div&gt;&lt;div&gt;&lt;div&gt;&lt;b&gt;dcterms:license:&amp;nbsp;&lt;/b&gt;&lt;span style=&quot;background-color: light-dark(rgb(255, 255, 255), rgb(18, 18, 18));&quot;&gt;&amp;lt;http://purl.org/NET/rdflicense/APACHE2.0&amp;gt;&lt;/span&gt;&lt;/div&gt;&lt;div&gt;&lt;span style=&quot;background-color: light-dark(rgb(255, 255, 255), rgb(18, 18, 18));&quot;&gt;&lt;b&gt;dcterms:publisher: &lt;/b&gt;&amp;lt;&lt;/span&gt;&lt;span style=&quot;background-color: light-dark(rgb(255, 255, 255), rgb(18, 18, 18));&quot;&gt;https://github.com/candil-data-fabric&amp;gt;&lt;/span&gt;&lt;/div&gt;&lt;div&gt;&lt;b&gt;owl:versionInfo&lt;/b&gt;: &quot;1.0.0&quot;&lt;br&gt;&lt;/div&gt;&lt;div&gt;&lt;b&gt;owl:versionIRI:&amp;nbsp;&lt;/b&gt;&amp;lt;https://w3id.org/mouseworld/routing&lt;span style=&quot;background-color: light-dark(rgb(255, 255, 255), rgb(18, 18, 18));&quot;&gt;&amp;gt;&lt;/span&gt;&lt;/div&gt;&lt;div&gt;&lt;b style=&quot;caret-color: rgb(0, 0, 0);&quot;&gt;owl:priorVersion:&lt;/b&gt;&lt;span style=&quot;caret-color: rgb(0, 0, 0);&quot;&gt;&amp;nbsp;&amp;lt;https://w3id.org/mouseworld/routing&amp;gt;&lt;/span&gt;&lt;span style=&quot;background-color: light-dark(rgb(255, 255, 255), rgb(18, 18, 18));&quot;&gt;&lt;br&gt;&lt;/span&gt;&lt;/div&gt;&lt;div&gt;&lt;span style=&quot;caret-color: rgb(0, 0, 0);&quot;&gt;&lt;div style=&quot;&quot;&gt;&lt;b style=&quot;background-color: light-dark(rgb(255, 255, 255), rgb(18, 18, 18)); color: light-dark(rgb(0, 0, 0), rgb(237, 237, 237));&quot;&gt;schema:codeRepository: &lt;/b&gt;&lt;span style=&quot;background-color: light-dark(rgb(255, 255, 255), rgb(18, 18, 18)); color: light-dark(rgb(0, 0, 0), rgb(237, 237, 237));&quot;&gt;&quot;https://github.com/candil-data-fabric/mouseworld-ontology&quot;&lt;/span&gt;&lt;span style=&quot;color: light-dark(rgb(0, 0, 0), rgb(237, 237, 237)); background-color: rgb(249, 249, 249); text-align: justify;&quot;&gt;^^xsd:anyURI&lt;/span&gt;&lt;/div&gt;&lt;/span&gt;&lt;/div&gt;&lt;div&gt;&lt;div style=&quot;caret-color: rgb(0, 0, 0);&quot;&gt;&lt;b&gt;vann:preferredNamespacePrefix:&lt;/b&gt;&amp;nbsp;&quot;mw-rt&quot;&lt;/div&gt;&lt;div style=&quot;caret-color: rgb(0, 0, 0);&quot;&gt;&lt;b&gt;vann:preferredNamespaceUri:&lt;/b&gt;&amp;nbsp;&amp;lt;https://w3id.org/mouseworld/routing#&amp;gt;&lt;/div&gt;&lt;div style=&quot;caret-color: rgb(0, 0, 0);&quot;&gt;&lt;br&gt;&lt;/div&gt;&lt;/div&gt;&lt;/div&gt;" style="shape=document;whiteSpace=wrap;html=1;boundedLbl=1;labelBackgroundColor=#ffffff;strokeColor=#000000;fontSize=12;fontColor=#000000;size=0.13333333333333333;align=left;spacingLeft=10;fontFamily=Helvetica;" vertex="1" parent="5h32e7U5oIckj3QQvWM9-1">
          <mxGeometry x="819.2099999999999" y="-120" width="620.79" height="280" as="geometry" />
        </mxCell>
        <mxCell id="qPcVPQ20BTHQ4WQNNw3L-2" value="Legend" style="swimlane;whiteSpace=wrap;html=1;" vertex="1" parent="5h32e7U5oIckj3QQvWM9-1">
          <mxGeometry x="379.8" y="-200" width="390" height="350" as="geometry">
            <mxRectangle x="330" y="370" width="80" height="30" as="alternateBounds" />
          </mxGeometry>
        </mxCell>
        <mxCell id="qPcVPQ20BTHQ4WQNNw3L-3" value="Datatype Property: datatype" style="rounded=0;whiteSpace=wrap;html=1;snapToPoint=1;points=[[0.1,0],[0.2,0],[0.3,0],[0.4,0],[0.5,0],[0.6,0],[0.7,0],[0.8,0],[0.9,0],[0,0.1],[0,0.3],[0,0.5],[0,0.7],[0,0.9],[0.1,1],[0.2,1],[0.3,1],[0.4,1],[0.5,1],[0.6,1],[0.7,1],[0.8,1],[0.9,1],[1,0.1],[1,0.3],[1,0.5],[1,0.7],[1,0.9]];" vertex="1" parent="qPcVPQ20BTHQ4WQNNw3L-2">
          <mxGeometry x="19" y="70" width="181" height="30" as="geometry" />
        </mxCell>
        <mxCell id="qPcVPQ20BTHQ4WQNNw3L-4" value="Class" style="rounded=0;whiteSpace=wrap;html=1;snapToPoint=1;points=[[0.1,0],[0.2,0],[0.3,0],[0.4,0],[0.5,0],[0.6,0],[0.7,0],[0.8,0],[0.9,0],[0,0.1],[0,0.3],[0,0.5],[0,0.7],[0,0.9],[0.1,1],[0.2,1],[0.3,1],[0.4,1],[0.5,1],[0.6,1],[0.7,1],[0.8,1],[0.9,1],[1,0.1],[1,0.3],[1,0.5],[1,0.7],[1,0.9]];" vertex="1" parent="qPcVPQ20BTHQ4WQNNw3L-2">
          <mxGeometry x="19" y="40" width="181" height="30" as="geometry" />
        </mxCell>
        <mxCell id="qPcVPQ20BTHQ4WQNNw3L-5" value="&lt;u&gt;Individual&lt;/u&gt;" style="rounded=0;whiteSpace=wrap;html=1;snapToPoint=1;points=[[0.1,0],[0.2,0],[0.3,0],[0.4,0],[0.5,0],[0.6,0],[0.7,0],[0.8,0],[0.9,0],[0,0.1],[0,0.3],[0,0.5],[0,0.7],[0,0.9],[0.1,1],[0.2,1],[0.3,1],[0.4,1],[0.5,1],[0.6,1],[0.7,1],[0.8,1],[0.9,1],[1,0.1],[1,0.3],[1,0.5],[1,0.7],[1,0.9]];" vertex="1" parent="qPcVPQ20BTHQ4WQNNw3L-2">
          <mxGeometry x="19" y="120" width="181" height="30" as="geometry" />
        </mxCell>
        <mxCell id="qPcVPQ20BTHQ4WQNNw3L-6" value="" style="endArrow=classic;html=1;exitX=1;exitY=0.5;exitDx=0;exitDy=0;endSize=8;arcSize=0;rounded=0;" edge="1" parent="qPcVPQ20BTHQ4WQNNw3L-2">
          <mxGeometry width="50" height="50" relative="1" as="geometry">
            <mxPoint x="19" y="170" as="sourcePoint" />
            <mxPoint x="200" y="170" as="targetPoint" />
          </mxGeometry>
        </mxCell>
        <mxCell id="qPcVPQ20BTHQ4WQNNw3L-7" value="Object Property" style="text;html=1;align=center;verticalAlign=middle;resizable=0;points=[];labelBackgroundColor=#ffffff;" vertex="1" connectable="0" parent="qPcVPQ20BTHQ4WQNNw3L-6">
          <mxGeometry x="-0.1269" relative="1" as="geometry">
            <mxPoint x="11" as="offset" />
          </mxGeometry>
        </mxCell>
        <mxCell id="qPcVPQ20BTHQ4WQNNw3L-8" value="" style="endArrow=block;html=1;fontColor=#000099;endFill=0;endSize=8;arcSize=0;rounded=0;" edge="1" parent="qPcVPQ20BTHQ4WQNNw3L-2">
          <mxGeometry width="50" height="50" relative="1" as="geometry">
            <mxPoint x="20" y="190" as="sourcePoint" />
            <mxPoint x="200" y="190" as="targetPoint" />
          </mxGeometry>
        </mxCell>
        <mxCell id="qPcVPQ20BTHQ4WQNNw3L-9" value="&lt;font style=&quot;font-size: 12px;&quot;&gt;rdfs:subClassOf&lt;/font&gt;" style="edgeLabel;html=1;align=center;verticalAlign=middle;resizable=0;points=[];" vertex="1" connectable="0" parent="qPcVPQ20BTHQ4WQNNw3L-8">
          <mxGeometry x="-0.1196" y="-1" relative="1" as="geometry">
            <mxPoint x="14" as="offset" />
          </mxGeometry>
        </mxCell>
        <mxCell id="qPcVPQ20BTHQ4WQNNw3L-10" value="" style="endArrow=open;html=1;fontColor=#000099;endFill=0;dashed=1;endSize=8;rounded=0;" edge="1" parent="qPcVPQ20BTHQ4WQNNw3L-2">
          <mxGeometry width="50" height="50" relative="1" as="geometry">
            <mxPoint x="20" y="210" as="sourcePoint" />
            <mxPoint x="200" y="210" as="targetPoint" />
          </mxGeometry>
        </mxCell>
        <mxCell id="qPcVPQ20BTHQ4WQNNw3L-11" value="&lt;font style=&quot;font-size: 12px;&quot;&gt;rdf:type&lt;/font&gt;" style="edgeLabel;html=1;align=center;verticalAlign=middle;resizable=0;points=[];" vertex="1" connectable="0" parent="qPcVPQ20BTHQ4WQNNw3L-10">
          <mxGeometry x="-0.0889" y="1" relative="1" as="geometry">
            <mxPoint x="8" as="offset" />
          </mxGeometry>
        </mxCell>
        <mxCell id="qPcVPQ20BTHQ4WQNNw3L-12" value="MW Topology" style="rounded=0;whiteSpace=wrap;html=1;fillColor=#D5E8D4;strokeColor=#000000;fontFamily=Helvetica;fontSize=13;" vertex="1" parent="qPcVPQ20BTHQ4WQNNw3L-2">
          <mxGeometry x="220" y="40.00000000000007" width="138.5" height="25" as="geometry" />
        </mxCell>
        <mxCell id="qPcVPQ20BTHQ4WQNNw3L-13" value="MW Routing" style="rounded=0;whiteSpace=wrap;html=1;fillColor=#FFE6CC;strokeColor=#000000;fontFamily=Helvetica;fontSize=13;" vertex="1" parent="qPcVPQ20BTHQ4WQNNw3L-2">
          <mxGeometry x="220" y="75.00000000000007" width="138.5" height="25" as="geometry" />
        </mxCell>
        <mxCell id="qPcVPQ20BTHQ4WQNNw3L-14" value="MW routing" style="rounded=0;whiteSpace=wrap;html=1;fillColor=#E1D5E7;strokeColor=#000000;fontFamily=Helvetica;fontSize=13;" vertex="1" parent="qPcVPQ20BTHQ4WQNNw3L-2">
          <mxGeometry x="219.99999999999994" y="110" width="138.5" height="25" as="geometry" />
        </mxCell>
      </root>
    </mxGraphModel>
  </diagram>
</mxfile>
